<svg xmlns="http://www.w3.org/2000/svg" viewBox="0 0 96 96" role="img" aria-label="OneDrive">
  <path fill="#0078D4" d="M37.6 34.8c6.1-9.9 19.8-12.7 29.4-5.7 5.8 4.2 8.7 10.7 8.1 17.1 8.4 1.7 14.2 8.1 14.2 16.1 0 9.3-7.9 16.8-17.6 16.8H29.2c-12.2 0-22.5-9.2-22.5-20.6 0-10.3 8.2-18.9 19-20.4 2.6-1.8 6.3-3.3 11.9-3.3Z"/>
  <path fill="#28A8EA" d="M37.6 34.8c4.1-6.7 11.7-10.2 19.1-9.6 6 .5 11.8 3.6 15.4 8.6L42.7 51.5 25.7 38.1c2.6-1.8 6.3-3.3 11.9-3.3Z"/>
  <path fill="#0364B8" d="M42.7 51.5 72.1 33.8c2.6 3.6 3.6 7.9 3 12.4 6.7 1.3 11.8 5.8 13.5 11.8L49.5 72.2 16.8 52.9c2.4-7.8 9.6-13.6 18.3-14.8l7.6 13.4Z"/>
  <path fill="#1490DF" d="M6.7 58.5c0-1.9.3-3.7.8-5.6h30.8l11.2 19.3h-36C9.2 68.8 6.7 64 6.7 58.5Z"/>
</svg>
